<svg width="40" height="40" viewBox="0 0 40 40" fill="none" xmlns="http://www.w3.org/2000/svg">
<path d="M30 16.6667H27.9C27.2765 14.2517 25.988 12.06 24.1811 10.3407C22.3742 8.62134 20.1212 7.44332 17.6782 6.94047C15.2352 6.43761 12.7002 6.63007 10.3611 7.49599C8.02204 8.36191 5.97275 9.86656 4.44611 11.839C2.91946 13.8114 1.97667 16.1725 1.72487 18.6539C1.47306 21.1354 1.92234 23.6377 3.02165 25.8766C4.12096 28.1155 5.82622 30.0011 7.94366 31.3193C10.0611 32.6374 12.5058 33.3352 15 33.3333H30C32.2102 33.3333 34.3298 32.4554 35.8926 30.8926C37.4554 29.3298 38.3334 27.2101 38.3334 25C38.3334 22.7899 37.4554 20.6703 35.8926 19.1074C34.3298 17.5446 32.2102 16.6667 30 16.6667Z" stroke="black" stroke-width="2" stroke-linecap="round" stroke-linejoin="round"/>
</svg>
