<svg width="40" height="40" viewBox="0 0 40 40" fill="none" xmlns="http://www.w3.org/2000/svg">
<g clip-path="url(#clip0_443_168)">
<path d="M31.6666 28.1667C33.6919 27.7554 35.4921 26.6063 36.7178 24.9424C37.9435 23.2786 38.5072 21.2186 38.2995 19.1625C38.0918 17.1064 37.1275 15.2008 35.5939 13.8156C34.0602 12.4305 32.0666 11.6646 30 11.6667H27.9C27.3478 9.52886 26.2734 7.56164 24.7731 5.94163C23.2729 4.32163 21.3939 3.09954 19.3047 2.3851C17.2155 1.67065 14.9816 1.48621 12.8035 1.84834C10.6255 2.21046 8.57142 3.10782 6.82581 4.45984C5.08021 5.81186 3.69768 7.57622 2.80236 9.59451C1.90704 11.6128 1.52695 13.8218 1.69623 16.0233C1.8655 18.2248 2.57883 20.3497 3.77217 22.2074C4.96552 24.0651 6.60152 25.5974 8.53331 26.6667" stroke="black" stroke-width="2" stroke-linecap="round" stroke-linejoin="round"/>
<path d="M21.6667 18.3333L15 28.3333H25L18.3333 38.3333" stroke="black" stroke-width="2" stroke-linecap="round" stroke-linejoin="round"/>
</g>
<defs>
<clipPath id="clip0_443_168">
<rect width="40" height="40" fill="white"/>
</clipPath>
</defs>
</svg>
