<svg width="43" height="40" viewBox="0 0 43 40" fill="none" xmlns="http://www.w3.org/2000/svg">
<path d="M28.2667 21.6667V35" stroke="black" stroke-width="2" stroke-linecap="round" stroke-linejoin="round"/>
<path d="M14.1334 21.6667V35" stroke="black" stroke-width="2" stroke-linecap="round" stroke-linejoin="round"/>
<path d="M21.2 25V38.3333" stroke="black" stroke-width="2" stroke-linecap="round" stroke-linejoin="round"/>
<path d="M35.3333 27.6333C37.1905 26.866 38.7114 25.5193 39.6406 23.8192C40.5698 22.1192 40.8508 20.1694 40.4365 18.297C40.0221 16.4246 38.9376 14.7437 37.3651 13.5364C35.7925 12.3291 33.8275 11.6689 31.8 11.6667H29.574C29.014 9.62087 27.9466 7.72991 26.4599 6.14967C24.9732 4.56942 23.1096 3.34513 21.0229 2.5777C18.9362 1.81028 16.686 1.52169 14.4578 1.73574C12.2296 1.94978 10.0873 2.66033 8.20736 3.80881C6.32743 4.95728 4.76372 6.51081 3.64514 8.34133C2.52656 10.1719 1.88513 12.227 1.77372 14.3373C1.66232 16.4475 2.08412 18.5526 3.00437 20.4789C3.92462 22.4052 5.31696 24.0977 7.06664 25.4167" stroke="black" stroke-width="2" stroke-linecap="round" stroke-linejoin="round"/>
</svg>
