<svg width="40" height="40" viewBox="0 0 40 40" fill="none" xmlns="http://www.w3.org/2000/svg">
<g id="cloud-snow">
<path id="Vector" d="M33.3333 29.3C35.0854 28.5326 36.5202 27.1859 37.3968 25.4859C38.2734 23.7859 38.5386 21.836 38.1477 19.9636C37.7568 18.0913 36.7337 16.4103 35.2501 15.203C33.7665 13.9958 31.9128 13.3356 30 13.3333H27.9C27.3717 11.2875 26.3648 9.39657 24.9622 7.81632C23.5596 6.23608 21.8016 5.01178 19.833 4.24436C17.8643 3.47693 15.7415 3.18835 13.6395 3.4024C11.5374 3.61644 9.51637 4.32698 7.74284 5.47546C5.96931 6.62394 4.49412 8.17746 3.43886 10.008C2.38359 11.8385 1.77847 13.8936 1.67337 16.0039C1.56827 18.1142 1.9662 20.2193 2.83436 22.1456C3.70251 24.0719 5.01605 25.7643 6.66668 27.0833" stroke="black" stroke-width="2" stroke-linecap="round" stroke-linejoin="round"/>
<path id="Vector_2" d="M13.3333 26.6667H13.3492" stroke="black" stroke-width="2" stroke-linecap="round" stroke-linejoin="round"/>
<path id="Vector_3" d="M13.3333 33.3333H13.3492" stroke="black" stroke-width="2" stroke-linecap="round" stroke-linejoin="round"/>
<path id="Vector_4" d="M20 30H20.0159" stroke="black" stroke-width="2" stroke-linecap="round" stroke-linejoin="round"/>
<path id="Vector_5" d="M20 36.6667H20.0159" stroke="black" stroke-width="2" stroke-linecap="round" stroke-linejoin="round"/>
<path id="Vector_6" d="M26.6667 26.6667H26.6825" stroke="black" stroke-width="2" stroke-linecap="round" stroke-linejoin="round"/>
<path id="Vector_7" d="M26.6667 33.3333H26.6825" stroke="black" stroke-width="2" stroke-linecap="round" stroke-linejoin="round"/>
</g>
</svg>
