<svg width="51" height="51" viewBox="0 0 51 51" fill="none" xmlns="http://www.w3.org/2000/svg">
<path d="M38.25 21.25H35.5725C34.7775 18.1709 33.1347 15.3765 30.8309 13.1843C28.527 10.9922 25.6545 9.49023 22.5397 8.84909C19.4249 8.20794 16.1927 8.45334 13.2104 9.55738C10.2281 10.6614 7.61523 12.5799 5.66875 15.0947C3.72228 17.6095 2.52022 20.6199 2.19917 23.7838C1.87812 26.9476 2.45095 30.1381 3.85256 32.9927C5.25418 35.8472 7.42839 38.2514 10.1281 39.9321C12.8279 41.6127 15.9449 42.5024 19.125 42.5H38.25C41.0679 42.5 43.7704 41.3806 45.763 39.388C47.7556 37.3954 48.875 34.6929 48.875 31.875C48.875 29.0571 47.7556 26.3546 45.763 24.362C43.7704 22.3694 41.0679 21.25 38.25 21.25Z" fill="white" stroke="#292929" stroke-width="2" stroke-linecap="round" stroke-linejoin="round"/>
</svg>
