<svg width="51" height="51" viewBox="0 0 51 51" fill="none" xmlns="http://www.w3.org/2000/svg">
<path d="M40.375 35.9125C42.9572 35.3882 45.2524 33.9231 46.8152 31.8016C48.3779 29.6802 49.0967 27.0538 48.8319 24.4322C48.5671 21.8106 47.3376 19.381 45.3822 17.6149C43.4268 15.8488 40.8849 14.8723 38.25 14.875H35.5725C34.8685 12.1493 33.4986 9.6411 31.5858 7.57559C29.673 5.51008 27.2772 3.95192 24.6135 3.041C21.9498 2.13009 19.1015 1.89493 16.3245 2.35664C13.5475 2.81835 10.9286 3.96248 8.70293 5.6863C6.47728 7.41013 4.71456 9.65968 3.57303 12.233C2.4315 14.8063 1.94689 17.6229 2.16271 20.4297C2.37853 23.2366 3.28802 25.9459 4.80954 28.3145C6.33106 30.683 8.41696 32.6367 10.88 34" fill="white"/>
<path d="M40.375 35.9125C42.9572 35.3882 45.2524 33.9231 46.8152 31.8016C48.3779 29.6802 49.0967 27.0538 48.8319 24.4322C48.5671 21.8106 47.3376 19.381 45.3822 17.6149C43.4268 15.8488 40.8849 14.8723 38.25 14.875H35.5725C34.8685 12.1493 33.4986 9.6411 31.5858 7.57559C29.673 5.51008 27.2772 3.95192 24.6135 3.041C21.9498 2.13009 19.1015 1.89493 16.3245 2.35664C13.5475 2.81835 10.9286 3.96248 8.70293 5.6863C6.47728 7.41013 4.71456 9.65968 3.57303 12.233C2.4315 14.8063 1.94689 17.6229 2.16271 20.4297C2.37853 23.2366 3.28802 25.9459 4.80954 28.3145C6.33106 30.683 8.41696 32.6367 10.88 34" stroke="#292929" stroke-width="2" stroke-linecap="round" stroke-linejoin="round"/>
<path d="M27.625 23.375L19.125 36.125H31.875L23.375 48.875" stroke="#292929" stroke-width="2" stroke-linecap="round" stroke-linejoin="round"/>
</svg>
