<svg width="51" height="51" viewBox="0 0 51 51" fill="none" xmlns="http://www.w3.org/2000/svg">
<path d="M44.2192 35.3835C46.3318 34.1651 47.9609 32.2571 48.8332 29.9796C49.7054 27.7022 49.7676 25.194 49.0094 22.8761C48.2512 20.5583 46.7186 18.5718 44.6691 17.2501C42.6195 15.9285 40.1777 15.3521 37.7534 15.6178L35.0922 15.9126C34.1355 13.3943 32.594 11.1393 30.5947 9.33369C28.5954 7.52804 26.1957 6.22338 23.5932 5.52725C20.9907 4.83112 18.2601 4.76345 15.6263 5.32982C12.9926 5.89618 10.5311 7.08037 8.44488 8.78477C6.35862 10.4892 4.7073 12.665 3.62702 15.1329C2.54673 17.6007 2.06842 20.29 2.23151 22.979C2.3946 25.6681 3.19441 28.2798 4.56503 30.599C5.93565 32.9183 7.83783 34.8786 10.1148 36.3183" fill="white"/>
<path d="M44.2192 35.3835C46.3318 34.1651 47.9609 32.2571 48.8332 29.9796C49.7054 27.7022 49.7676 25.194 49.0094 22.8761C48.2511 20.5583 46.7186 18.5718 44.6691 17.2501C42.6195 15.9285 40.1777 15.3521 37.7534 15.6178L35.0922 15.9126C34.1355 13.3943 32.594 11.1393 30.5947 9.33369C28.5954 7.52804 26.1957 6.22338 23.5932 5.52725C20.9907 4.83112 18.2601 4.76345 15.6263 5.32982C12.9926 5.89618 10.5311 7.08037 8.44488 8.78477C6.35863 10.4892 4.7073 12.665 3.62702 15.1329C2.54673 17.6007 2.06842 20.29 2.23151 22.979C2.3946 25.6681 3.19441 28.2798 4.56503 30.599C5.93565 32.9183 7.83783 34.8786 10.1148 36.3183" stroke="#292929" stroke-width="2" stroke-linecap="round" stroke-linejoin="round"/>
<path d="M17 34H17.0213" stroke="#292929" stroke-width="2" stroke-linecap="round" stroke-linejoin="round"/>
<path d="M17 42.5H17.0213" stroke="#292929" stroke-width="2" stroke-linecap="round" stroke-linejoin="round"/>
<path d="M25.5 38.25H25.5213" stroke="#292929" stroke-width="2" stroke-linecap="round" stroke-linejoin="round"/>
<path d="M25.5 46.75H25.5213" stroke="#292929" stroke-width="2" stroke-linecap="round" stroke-linejoin="round"/>
<path d="M34 34H34.0213" stroke="#292929" stroke-width="2" stroke-linecap="round" stroke-linejoin="round"/>
<path d="M34 42.5H34.0213" stroke="#292929" stroke-width="2" stroke-linecap="round" stroke-linejoin="round"/>
</svg>
