<svg width="49" height="37" viewBox="0 0 49 37" fill="none" xmlns="http://www.w3.org/2000/svg">
<path d="M37.25 14.25H34.5725C33.7775 11.1709 32.1347 8.37647 29.8309 6.18434C27.527 3.99221 24.6545 2.49023 21.5397 1.84909C18.4249 1.20794 15.1927 1.45334 12.2104 2.55738C9.22807 3.66143 6.61523 5.57986 4.66875 8.09469C2.72228 10.6095 1.52022 13.6199 1.19917 16.7838C0.878117 19.9476 1.45095 23.1381 2.85256 25.9927C4.25418 28.8472 6.42839 31.2514 9.12813 32.9321C11.8279 34.6127 14.9449 35.5024 18.125 35.5H37.25C40.0679 35.5 42.7704 34.3806 44.763 32.388C46.7556 30.3954 47.875 27.6929 47.875 24.875C47.875 22.0571 46.7556 19.3546 44.763 17.362C42.7704 15.3694 40.0679 14.25 37.25 14.25Z" fill="white" stroke="#292929" stroke-width="2" stroke-linecap="round" stroke-linejoin="round"/>
</svg>
