<svg width="31" height="34" viewBox="0 0 31 34" fill="none" xmlns="http://www.w3.org/2000/svg">
<path d="M27.125 14.1667C27.125 24.0834 15.5 32.5834 15.5 32.5834C15.5 32.5834 3.875 24.0834 3.875 14.1667C3.875 10.7852 5.09977 7.54216 7.27988 5.15108C9.45999 2.75999 12.4169 1.41669 15.5 1.41669C18.5831 1.41669 21.54 2.75999 23.7201 5.15108C25.9002 7.54216 27.125 10.7852 27.125 14.1667Z" fill="white" stroke="#292929" stroke-width="2" stroke-linecap="round" stroke-linejoin="round"/>
<path d="M15.5 18.4167C17.6401 18.4167 19.375 16.5139 19.375 14.1667C19.375 11.8195 17.6401 9.91669 15.5 9.91669C13.3599 9.91669 11.625 11.8195 11.625 14.1667C11.625 16.5139 13.3599 18.4167 15.5 18.4167Z" fill="#D9D9D9" stroke="#292929" stroke-width="2" stroke-linecap="round" stroke-linejoin="round"/>
</svg>
